<?xml version="1.0" encoding="UTF-8" standalone="no"?>
<!DOCTYPE svg PUBLIC "-//W3C//DTD SVG 1.1//EN" "http://www.w3.org/Graphics/SVG/1.1/DTD/svg11.dtd">
<svg width="100%" height="100%" viewBox="0 0 836 1019" version="1.1" xmlns="http://www.w3.org/2000/svg" xmlns:xlink="http://www.w3.org/1999/xlink" xml:space="preserve" xmlns:serif="http://www.serif.com/" style="fill-rule:evenodd;clip-rule:evenodd;stroke-linejoin:round;stroke-miterlimit:2;">
    <g transform="matrix(1,0,0,1,-1513.04,-3600.93)">
        <g transform="matrix(4.16667,0,0,4.16667,0,0)">
            <g>
                <g transform="matrix(1,0,0,1,-6.42409,2.45263)">
                    <path d="M467.698,1020.09C428.601,1020.09 396.907,990.23 396.907,953.394C396.907,916.559 428.601,886.697 467.698,886.697C506.795,886.697 538.489,916.559 538.489,953.394C538.489,990.23 506.795,1020.09 467.698,1020.09ZM469.825,861.77C414.447,861.77 369.553,903.586 369.553,955.168C369.553,976.144 376.978,995.503 389.51,1011.09L458.228,1100.65C463.158,1105.82 472.942,1111.7 484.882,1096.14L550.132,1011.1C562.67,995.511 570.097,976.148 570.097,955.168C570.097,903.586 525.204,861.77 469.825,861.77Z" style="fill:rgb(59,181,74);fill-rule:nonzero;"/>
                </g>
                <g id="hund-pfote" transform="matrix(1.93612,0,0,1.71606,460.544,948.254)">
                    <g transform="matrix(1,0,0,1,-24.4195,-24.4195)">
                        <clipPath id="_clip1">
                            <rect x="0" y="0" width="48.839" height="48.839"/>
                        </clipPath>
                        <g clip-path="url(#_clip1)">
                            <g>
                                <path d="M39.041,36.843C41.095,40.077 42.063,41.794 42.063,43.585C42.063,47.122 39.436,48.837 35.897,48.837C34.337,48.837 33.33,48.835 30.785,47.511C30.785,47.511 29.136,46.002 25.277,46.157C21.382,46.003 19.732,47.53 19.732,47.53C17.187,48.853 16.216,48.839 14.658,48.839C11.119,48.839 8.49,47.126 8.49,43.587C8.49,41.796 9.461,40.081 11.514,36.845C11.514,36.845 15.395,30.4 18.758,27.368C21.188,25.18 24.731,25.188 24.731,25.188L25.824,25.188L25.824,25.187C25.824,25.187 29.522,25.178 31.8,27.368C35.059,30.51 39.041,36.844 39.041,36.843ZM16.631,20.878C20.331,20.878 23.33,16.204 23.33,10.439C23.33,4.674 20.331,0 16.631,0C12.931,0 9.932,4.674 9.932,10.439C9.932,16.204 12.931,20.878 16.631,20.878ZM10.211,30.988C12.938,29.729 13.56,25.265 11.599,21.017C9.638,16.769 5.838,14.345 3.111,15.603C0.384,16.861 -0.237,21.326 1.723,25.574C3.684,29.822 7.484,32.245 10.211,30.988ZM32.206,20.878C35.906,20.878 38.906,16.204 38.906,10.439C38.906,4.674 35.906,0 32.206,0C28.506,0 25.507,4.674 25.507,10.439C25.507,16.204 28.506,20.878 32.206,20.878ZM45.727,15.602C42.999,14.343 39.2,16.767 37.239,21.016C35.278,25.265 35.9,29.729 38.628,30.988C41.356,32.246 45.155,29.822 47.116,25.574C49.077,21.326 48.455,16.861 45.727,15.602Z" style="fill:rgb(59,181,74);fill-rule:nonzero;"/>
                            </g>
                        </g>
                    </g>
                </g>
            </g>
            <g transform="matrix(1,0,0,1,-6.42409,2.45263)">
                <path d="M469.825,1020.06C469.118,1020.08 468.41,1020.09 467.698,1020.09C428.601,1020.09 396.907,990.231 396.907,953.395C396.907,916.559 428.601,886.698 467.698,886.698C468.41,886.698 469.118,886.711 469.825,886.73L469.825,861.771C414.447,861.771 369.553,903.586 369.553,955.169C369.553,976.144 376.978,995.503 389.51,1011.09L458.228,1100.65C460.853,1103.4 464.855,1106.36 469.825,1106.17L469.825,1020.06Z" style="fill:rgb(33,146,69);fill-rule:nonzero;"/>
            </g>
        </g>
    </g>
</svg>
