<?xml version="1.0" encoding="UTF-8" standalone="no"?>
<!DOCTYPE svg PUBLIC "-//W3C//DTD SVG 1.1//EN" "http://www.w3.org/Graphics/SVG/1.1/DTD/svg11.dtd">
<svg width="100%" height="100%" viewBox="0 0 836 1019" version="1.1" xmlns="http://www.w3.org/2000/svg" xmlns:xlink="http://www.w3.org/1999/xlink" xml:space="preserve" xmlns:serif="http://www.serif.com/" style="fill-rule:evenodd;clip-rule:evenodd;stroke-linejoin:round;stroke-miterlimit:2;">
    <g transform="matrix(1,0,0,1,-3628.23,-3600.92)">
        <g transform="matrix(4.16667,0,0,4.16667,0,0)">
            <g transform="matrix(1,0,0,1,-13.6512,2.45108)">
                <path d="M982.571,1020.09C943.474,1020.09 911.78,990.23 911.78,953.394C911.78,916.559 943.474,886.697 982.571,886.697C1021.67,886.697 1053.36,916.559 1053.36,953.394C1053.36,990.23 1021.67,1020.09 982.571,1020.09ZM984.698,861.77C929.319,861.77 884.426,903.586 884.426,955.168C884.426,976.144 891.85,995.503 904.383,1011.09L973.101,1100.65C978.031,1105.82 987.815,1111.7 999.754,1096.14L1065,1011.1C1077.54,995.511 1084.97,976.148 1084.97,955.168C1084.97,903.586 1040.08,861.77 984.698,861.77Z" style="fill:rgb(197,120,49);fill-rule:nonzero;"/>
                <path d="M984.698,1020.06C983.991,1020.08 983.282,1020.09 982.571,1020.09C943.474,1020.09 911.78,990.231 911.78,953.395C911.78,916.559 943.474,886.698 982.571,886.698C983.282,886.698 983.991,886.711 984.698,886.73L984.698,861.771C929.319,861.771 884.426,903.586 884.426,955.169C884.426,976.144 891.85,995.503 904.383,1011.09L973.101,1100.65C975.726,1103.4 979.728,1106.36 984.698,1106.17L984.698,1020.06Z" style="fill:rgb(155,86,36);fill-rule:nonzero;"/>
                <g id="poop" transform="matrix(0.216594,0,0,0.216594,984.698,948.254)">
                    <g transform="matrix(1,0,0,1,-256,-256)">
                        <g transform="matrix(1,0,0,1,32,64)">
                            <path d="M409.379,235.844C413.491,227.395 416,218.027 416,208C416,172.653 387.346,144 352,144L332.258,144C342.887,128.817 352,110.766 352,90.514C352,40.484 298.451,0 256,0C256,37.522 241.526,64 192,64C147.832,64 106.326,100.602 97.813,144L96,144C60.655,144 32,172.652 32,208C32,218.027 34.51,227.395 38.621,235.844C15.555,249.879 0,275.024 0,304C0,348.182 35.817,384 80,384L368,384C412.184,384 448,348.182 448,304C448,275.023 432.446,249.879 409.379,235.844L409.379,235.844Z" style="fill:rgb(196,119,48);fill-rule:nonzero;"/>
                        </g>
                    </g>
                </g>
            </g>
        </g>
    </g>
</svg>
