<?xml version="1.0" encoding="UTF-8" standalone="no"?>
<!DOCTYPE svg PUBLIC "-//W3C//DTD SVG 1.1//EN" "http://www.w3.org/Graphics/SVG/1.1/DTD/svg11.dtd">
<svg width="100%" height="100%" viewBox="0 0 836 1019" version="1.1" xmlns="http://www.w3.org/2000/svg" xmlns:xlink="http://www.w3.org/1999/xlink" xml:space="preserve" xmlns:serif="http://www.serif.com/" style="fill-rule:evenodd;clip-rule:evenodd;stroke-linejoin:round;stroke-miterlimit:2;">
    <g transform="matrix(1,0,0,1,-2555.08,-3569.29)">
        <g transform="matrix(4.16667,0,0,4.16667,0,0)">
            <g transform="matrix(1,0,0,1,-12.3343,-5.13927)">
                <g>
                    <path d="M723.698,1020.09C684.601,1020.09 652.907,990.23 652.907,953.394C652.907,916.559 684.601,886.697 723.698,886.697C762.795,886.697 794.489,916.559 794.489,953.394C794.489,990.23 762.795,1020.09 723.698,1020.09ZM725.825,861.77C670.447,861.77 625.553,903.586 625.553,955.168C625.553,976.144 632.978,995.503 645.51,1011.09L714.228,1100.65C719.158,1105.82 728.942,1111.7 740.882,1096.14L806.132,1011.1C818.67,995.511 826.097,976.148 826.097,955.168C826.097,903.586 781.204,861.77 725.825,861.77Z" style="fill:rgb(22,117,188);fill-rule:nonzero;"/>
                    <g transform="matrix(0.24,0,0,0.24,0,0)">
                        <path d="M2922.22,3981.02L3001.81,3782.31L3107,3977.76L3106.81,3977.79C3115.45,3992.76 3120.38,4010.06 3120.38,4028.47C3120.38,4085.35 3073.34,4131.53 3015.41,4131.53C2957.47,4131.53 2910.44,4085.35 2910.44,4028.47C2910.44,4021.2 2911.2,4014.11 2912.67,4007.27L2911.64,4007.42L2914.21,4001.02C2916.18,3994.03 2918.87,3987.33 2922.22,3981.02Z" style="fill:rgb(22,117,188);"/>
                    </g>
                </g>
                <path d="M725.825,1020.06C725.118,1020.08 724.41,1020.09 723.698,1020.09C684.601,1020.09 652.907,990.231 652.907,953.395C652.907,916.559 684.601,886.698 723.698,886.698C724.41,886.698 725.118,886.711 725.825,886.73L725.825,861.771C670.447,861.771 625.553,903.586 625.553,955.169C625.553,976.144 632.978,995.503 645.51,1011.09L714.228,1100.65C716.853,1103.4 720.855,1106.36 725.825,1106.17L725.825,1020.06Z" style="fill:rgb(16,100,154);fill-rule:nonzero;"/>
            </g>
        </g>
    </g>
</svg>
